<svg width="18" height="18" viewBox="0 0 18 18" fill="none" xmlns="http://www.w3.org/2000/svg">
  <path fill-rule="evenodd" clip-rule="evenodd" d="M8.05553 0.542938C8.1518 0.377739 8.2897 0.240669 8.45548 0.145401C8.62126 0.0501342 8.80912 0 9.00033 0C9.19153 0 9.37939 0.0501342 9.54517 0.145401C9.71095 0.240669 9.84885 0.377739 9.94512 0.542938L12.3902 4.74028L17.1387 5.76906C17.3255 5.80965 17.4984 5.89848 17.6401 6.02672C17.7818 6.15495 17.8875 6.3181 17.9465 6.49989C18.0056 6.68169 18.0159 6.87579 17.9766 7.06283C17.9372 7.24988 17.8495 7.42334 17.7222 7.56592L14.4854 11.1885L14.9753 16.0218C14.9946 16.2122 14.9637 16.4042 14.8856 16.5788C14.8074 16.7535 14.6849 16.9045 14.5301 17.017C14.3754 17.1294 14.1938 17.1993 14.0036 17.2196C13.8134 17.24 13.6211 17.21 13.4461 17.1328L9.00033 15.1733L4.55454 17.1328C4.37951 17.21 4.18729 17.24 3.99707 17.2196C3.80685 17.1993 3.6253 17.1294 3.47054 17.017C3.31577 16.9045 3.19321 16.7535 3.1151 16.5788C3.03698 16.4042 3.00604 16.2122 3.02537 16.0218L3.51526 11.1885L0.278466 7.56679C0.150942 7.42422 0.0630482 7.25069 0.0235577 7.06353C-0.0159327 6.87637 -0.00563769 6.68212 0.0534149 6.50018C0.112467 6.31825 0.218212 6.15498 0.360091 6.02669C0.50197 5.89839 0.67502 5.80956 0.861964 5.76906L5.61044 4.74028L8.05553 0.542938ZM9.00033 2.39666L6.97689 5.87141C6.90038 6.00256 6.79739 6.11635 6.67449 6.20551C6.55159 6.29467 6.41147 6.35726 6.26305 6.3893L2.3334 7.24049L5.01207 10.2385C5.21677 10.4677 5.31563 10.7721 5.28501 11.0774L4.87997 15.0779L8.55942 13.456C8.69835 13.3948 8.84851 13.3632 9.00033 13.3632C9.15215 13.3632 9.3023 13.3948 9.44123 13.456L13.1207 15.0779L12.7156 11.0774C12.7003 10.9263 12.7165 10.7737 12.7634 10.6293C12.8102 10.4849 12.8866 10.3517 12.9877 10.2385L15.6673 7.24049L11.7376 6.3893C11.5892 6.35726 11.4491 6.29467 11.3262 6.20551C11.2033 6.11635 11.1003 6.00256 11.0238 5.87141L9.00033 2.39666Z" fill="black" fill-opacity="0.4" />
</svg>